<mxfile host="Electron" agent="Mozilla/5.0 (Windows NT 10.0; Win64; x64) AppleWebKit/537.36 (KHTML, like Gecko) draw.io/28.1.2 Chrome/138.0.7204.243 Electron/37.4.0 Safari/537.36" version="28.1.2">
  <diagram name="Página-1" id="q9wKB2y8I9tIrR55UYk9">
    <mxGraphModel dx="1895" dy="1400" grid="1" gridSize="10" guides="1" tooltips="1" connect="1" arrows="1" fold="1" page="1" pageScale="1" pageWidth="1800" pageHeight="950" math="0" shadow="0">
      <root>
        <mxCell id="0" />
        <mxCell id="1" parent="0" />
        <mxCell id="KSBKpyr5LSnVgIoycmXs-1" value="&lt;font style=&quot;font-size: 18px;&quot;&gt;&lt;b&gt;Actividad 11 - Diseño de la base de datos de una empresa transportista&lt;/b&gt;&lt;/font&gt;" style="swimlane;fontStyle=0;childLayout=stackLayout;horizontal=1;startSize=30;horizontalStack=0;resizeParent=1;resizeParentMax=0;resizeLast=0;collapsible=1;marginBottom=0;whiteSpace=wrap;html=1;" parent="1" vertex="1">
          <mxGeometry x="140" y="830" width="1520" height="90" as="geometry" />
        </mxCell>
        <mxCell id="KSBKpyr5LSnVgIoycmXs-3" value="&lt;font style=&quot;font-size: 18px;&quot;&gt;Ingeniería en Sistemas de Información, Universidad de Sonora&lt;span style=&quot;white-space: pre;&quot;&gt;&#x9;&lt;/span&gt;&lt;span style=&quot;white-space: pre;&quot;&gt;&#x9;&lt;/span&gt;&lt;span style=&quot;white-space: pre;&quot;&gt;&#x9;&lt;/span&gt;&lt;span style=&quot;white-space: pre;&quot;&gt;&#x9;&lt;/span&gt;&lt;span style=&quot;white-space: pre;&quot;&gt;&#x9;&lt;/span&gt;&lt;span style=&quot;white-space: pre;&quot;&gt;&#x9;&lt;/span&gt;&lt;span style=&quot;white-space: pre;&quot;&gt;&#x9;&lt;/span&gt;&lt;span style=&quot;white-space: pre;&quot;&gt;&#x9;&lt;/span&gt;&lt;span style=&quot;white-space: pre;&quot;&gt;&#x9;&lt;/span&gt;&lt;span style=&quot;white-space: pre;&quot;&gt;&#x9;&lt;/span&gt;&lt;span style=&quot;white-space: pre;&quot;&gt;&#x9;&lt;span style=&quot;white-space: pre;&quot;&gt;&#x9;&lt;/span&gt;&lt;span style=&quot;white-space: pre;&quot;&gt;&#x9;&lt;/span&gt;&lt;span style=&quot;white-space: pre;&quot;&gt;&#x9;&lt;span style=&quot;white-space: pre;&quot;&gt;&#x9;&lt;span style=&quot;white-space: pre;&quot;&gt;&#x9;&lt;/span&gt; &lt;/span&gt; &lt;/span&gt;&lt;/span&gt;Profesor Navarro Hernández Rene Francisco&lt;/font&gt;" style="text;strokeColor=none;fillColor=none;align=left;verticalAlign=middle;spacingLeft=4;spacingRight=4;overflow=hidden;points=[[0,0.5],[1,0.5]];portConstraint=eastwest;rotatable=0;whiteSpace=wrap;html=1;" parent="KSBKpyr5LSnVgIoycmXs-1" vertex="1">
          <mxGeometry y="30" width="1520" height="30" as="geometry" />
        </mxCell>
        <mxCell id="KSBKpyr5LSnVgIoycmXs-2" value="&lt;font style=&quot;font-size: 18px;&quot;&gt;Por Elías Valdez Miranda&lt;span style=&quot;white-space: pre;&quot;&gt;&#x9;&lt;/span&gt;&lt;span style=&quot;white-space: pre;&quot;&gt;&#x9;&lt;/span&gt;&lt;span style=&quot;white-space: pre;&quot;&gt;&#x9;&lt;/span&gt;&lt;span style=&quot;white-space: pre;&quot;&gt;&#x9;&lt;/span&gt;&lt;span style=&quot;white-space: pre;&quot;&gt;&#x9;&lt;/span&gt;&lt;span style=&quot;white-space: pre;&quot;&gt;&#x9;&lt;/span&gt;&lt;span style=&quot;white-space: pre;&quot;&gt;&#x9;&lt;/span&gt;&lt;span style=&quot;white-space: pre;&quot;&gt;&#x9;&lt;/span&gt;&lt;span style=&quot;white-space: pre;&quot;&gt;&#x9;&lt;/span&gt;&lt;span style=&quot;white-space: pre;&quot;&gt;&#x9;&lt;/span&gt;Clave 4116: Bases de Datos I&lt;span style=&quot;white-space: pre;&quot;&gt;&#x9;&lt;span style=&quot;white-space: pre;&quot;&gt;&#x9;&lt;/span&gt;&lt;span style=&quot;white-space: pre;&quot;&gt;&#x9;&lt;/span&gt;&lt;span style=&quot;white-space: pre;&quot;&gt;&#x9;&lt;/span&gt;&lt;span style=&quot;white-space: pre;&quot;&gt;&#x9;&lt;/span&gt;&lt;span style=&quot;white-space: pre;&quot;&gt;&#x9;&lt;/span&gt;&lt;span style=&quot;white-space: pre;&quot;&gt;&#x9;&lt;span style=&quot;white-space: pre;&quot;&gt;&#x9;&lt;span style=&quot;white-space: pre;&quot;&gt;&#x9;&lt;span style=&quot;white-space: pre;&quot;&gt;&#x9;&lt;span style=&quot;white-space: pre;&quot;&gt;&#x9;&lt;span style=&quot;white-space: pre;&quot;&gt;&#x9;&lt;/span&gt;&lt;/span&gt;&lt;/span&gt;&lt;/span&gt;&lt;/span&gt;&lt;/span&gt;&lt;/span&gt;&lt;span style=&quot;white-space: pre;&quot;&gt;24&lt;/span&gt;&amp;nbsp;de septiembre de 2025&lt;/font&gt;" style="text;strokeColor=none;fillColor=none;align=left;verticalAlign=middle;spacingLeft=4;spacingRight=4;overflow=hidden;points=[[0,0.5],[1,0.5]];portConstraint=eastwest;rotatable=0;whiteSpace=wrap;html=1;" parent="KSBKpyr5LSnVgIoycmXs-1" vertex="1">
          <mxGeometry y="60" width="1520" height="30" as="geometry" />
        </mxCell>
        <mxCell id="ZdwJ0yHTc_Pz8evwpBD1-14" value="Conductor" style="rounded=1;arcSize=10;whiteSpace=wrap;html=1;align=center;fillColor=#dae8fc;strokeColor=#6c8ebf;" parent="1" vertex="1">
          <mxGeometry x="495" y="210" width="100" height="40" as="geometry" />
        </mxCell>
        <mxCell id="k6gAkaUTkc_mp0CV5XvP-1" value="Camión" style="rounded=1;arcSize=10;whiteSpace=wrap;html=1;align=center;fillColor=#dae8fc;strokeColor=#6c8ebf;" parent="1" vertex="1">
          <mxGeometry x="495" y="370" width="100" height="40" as="geometry" />
        </mxCell>
        <mxCell id="k6gAkaUTkc_mp0CV5XvP-2" value="Empresa" style="rounded=1;arcSize=10;whiteSpace=wrap;html=1;align=center;fillColor=#dae8fc;strokeColor=#6c8ebf;" parent="1" vertex="1">
          <mxGeometry x="875" y="245" width="100" height="40" as="geometry" />
        </mxCell>
        <mxCell id="k6gAkaUTkc_mp0CV5XvP-3" value="Conduce" style="shape=rhombus;perimeter=rhombusPerimeter;whiteSpace=wrap;html=1;align=center;fillColor=#ffe6cc;strokeColor=#d79b00;" parent="1" vertex="1">
          <mxGeometry x="485" y="290" width="120" height="50" as="geometry" />
        </mxCell>
        <mxCell id="k6gAkaUTkc_mp0CV5XvP-4" value="Pertenece a" style="shape=rhombus;perimeter=rhombusPerimeter;whiteSpace=wrap;html=1;align=center;fillColor=#ffe6cc;strokeColor=#d79b00;" parent="1" vertex="1">
          <mxGeometry x="635" y="320" width="120" height="50" as="geometry" />
        </mxCell>
        <mxCell id="k6gAkaUTkc_mp0CV5XvP-5" value="Contratado por" style="shape=rhombus;perimeter=rhombusPerimeter;whiteSpace=wrap;html=1;align=center;fillColor=#ffe6cc;strokeColor=#d79b00;" parent="1" vertex="1">
          <mxGeometry x="655" y="230" width="120" height="50" as="geometry" />
        </mxCell>
        <mxCell id="k6gAkaUTkc_mp0CV5XvP-6" value="Ciudad" style="rounded=1;arcSize=10;whiteSpace=wrap;html=1;align=center;fillColor=#dae8fc;strokeColor=#6c8ebf;" parent="1" vertex="1">
          <mxGeometry x="1175" y="245" width="100" height="40" as="geometry" />
        </mxCell>
        <mxCell id="k6gAkaUTkc_mp0CV5XvP-7" value="Carretera" style="rounded=1;arcSize=10;whiteSpace=wrap;html=1;align=center;fillColor=#dae8fc;strokeColor=#6c8ebf;" parent="1" vertex="1">
          <mxGeometry x="1555" y="245" width="100" height="40" as="geometry" />
        </mxCell>
        <mxCell id="k6gAkaUTkc_mp0CV5XvP-8" value="Empieza" style="shape=rhombus;perimeter=rhombusPerimeter;whiteSpace=wrap;html=1;align=center;fillColor=#ffe6cc;strokeColor=#d79b00;" parent="1" vertex="1">
          <mxGeometry x="1355" y="205" width="120" height="50" as="geometry" />
        </mxCell>
        <mxCell id="k6gAkaUTkc_mp0CV5XvP-10" value="" style="endArrow=ERoneToMany;html=1;rounded=0;entryX=0.5;entryY=1;entryDx=0;entryDy=0;exitX=0.5;exitY=0;exitDx=0;exitDy=0;endFill=0;" parent="1" source="k6gAkaUTkc_mp0CV5XvP-3" target="ZdwJ0yHTc_Pz8evwpBD1-14" edge="1">
          <mxGeometry width="50" height="50" relative="1" as="geometry">
            <mxPoint x="575" y="390" as="sourcePoint" />
            <mxPoint x="625" y="340" as="targetPoint" />
          </mxGeometry>
        </mxCell>
        <mxCell id="k6gAkaUTkc_mp0CV5XvP-11" value="" style="endArrow=ERoneToMany;html=1;rounded=0;exitX=0.5;exitY=1;exitDx=0;exitDy=0;endFill=0;entryX=0.5;entryY=0;entryDx=0;entryDy=0;" parent="1" source="k6gAkaUTkc_mp0CV5XvP-3" target="k6gAkaUTkc_mp0CV5XvP-1" edge="1">
          <mxGeometry width="50" height="50" relative="1" as="geometry">
            <mxPoint x="575" y="390" as="sourcePoint" />
            <mxPoint x="525" y="360" as="targetPoint" />
          </mxGeometry>
        </mxCell>
        <mxCell id="k6gAkaUTkc_mp0CV5XvP-15" value="" style="endArrow=ERoneToMany;html=1;rounded=0;entryX=1;entryY=0.5;entryDx=0;entryDy=0;exitX=0;exitY=0.5;exitDx=0;exitDy=0;endFill=0;" parent="1" source="k6gAkaUTkc_mp0CV5XvP-5" target="ZdwJ0yHTc_Pz8evwpBD1-14" edge="1">
          <mxGeometry width="50" height="50" relative="1" as="geometry">
            <mxPoint x="575" y="330" as="sourcePoint" />
            <mxPoint x="625" y="280" as="targetPoint" />
            <Array as="points">
              <mxPoint x="625" y="255" />
              <mxPoint x="625" y="230" />
            </Array>
          </mxGeometry>
        </mxCell>
        <mxCell id="k6gAkaUTkc_mp0CV5XvP-16" value="" style="endArrow=ERmandOne;html=1;rounded=0;endFill=0;entryX=0;entryY=0.5;entryDx=0;entryDy=0;exitX=1;exitY=0.5;exitDx=0;exitDy=0;" parent="1" source="k6gAkaUTkc_mp0CV5XvP-5" edge="1">
          <mxGeometry width="50" height="50" relative="1" as="geometry">
            <mxPoint x="785" y="260" as="sourcePoint" />
            <mxPoint x="875" y="254.99999999999994" as="targetPoint" />
          </mxGeometry>
        </mxCell>
        <mxCell id="k6gAkaUTkc_mp0CV5XvP-17" value="" style="endArrow=ERoneToMany;html=1;rounded=0;exitX=0.5;exitY=1;exitDx=0;exitDy=0;endFill=0;entryX=1;entryY=0.5;entryDx=0;entryDy=0;" parent="1" source="k6gAkaUTkc_mp0CV5XvP-4" target="k6gAkaUTkc_mp0CV5XvP-1" edge="1">
          <mxGeometry width="50" height="50" relative="1" as="geometry">
            <mxPoint x="575" y="330" as="sourcePoint" />
            <mxPoint x="625" y="380" as="targetPoint" />
            <Array as="points">
              <mxPoint x="695" y="390" />
            </Array>
          </mxGeometry>
        </mxCell>
        <mxCell id="k6gAkaUTkc_mp0CV5XvP-18" value="" style="endArrow=ERmandOne;html=1;rounded=0;exitX=1;exitY=0.5;exitDx=0;exitDy=0;endFill=0;entryX=0;entryY=0.75;entryDx=0;entryDy=0;" parent="1" source="k6gAkaUTkc_mp0CV5XvP-4" target="k6gAkaUTkc_mp0CV5XvP-2" edge="1">
          <mxGeometry width="50" height="50" relative="1" as="geometry">
            <mxPoint x="575" y="330" as="sourcePoint" />
            <mxPoint x="825" y="320" as="targetPoint" />
            <Array as="points">
              <mxPoint x="815" y="345" />
              <mxPoint x="815" y="275" />
            </Array>
          </mxGeometry>
        </mxCell>
        <mxCell id="k6gAkaUTkc_mp0CV5XvP-19" value="Opera en" style="shape=rhombus;perimeter=rhombusPerimeter;whiteSpace=wrap;html=1;align=center;fillColor=#ffe6cc;strokeColor=#d79b00;" parent="1" vertex="1">
          <mxGeometry x="1015" y="240" width="120" height="50" as="geometry" />
        </mxCell>
        <mxCell id="k6gAkaUTkc_mp0CV5XvP-20" value="" style="endArrow=ERzeroToMany;html=1;rounded=0;exitX=0;exitY=0.5;exitDx=0;exitDy=0;endFill=0;entryX=1;entryY=0.5;entryDx=0;entryDy=0;" parent="1" source="k6gAkaUTkc_mp0CV5XvP-19" target="k6gAkaUTkc_mp0CV5XvP-2" edge="1">
          <mxGeometry width="50" height="50" relative="1" as="geometry">
            <mxPoint x="905" y="260" as="sourcePoint" />
            <mxPoint x="1005" y="270" as="targetPoint" />
          </mxGeometry>
        </mxCell>
        <mxCell id="k6gAkaUTkc_mp0CV5XvP-21" value="" style="endArrow=ERoneToMany;html=1;rounded=0;exitX=1;exitY=0.5;exitDx=0;exitDy=0;endFill=0;entryX=0;entryY=0.5;entryDx=0;entryDy=0;" parent="1" source="k6gAkaUTkc_mp0CV5XvP-19" target="k6gAkaUTkc_mp0CV5XvP-6" edge="1">
          <mxGeometry width="50" height="50" relative="1" as="geometry">
            <mxPoint x="905" y="260" as="sourcePoint" />
            <mxPoint x="1155" y="280" as="targetPoint" />
          </mxGeometry>
        </mxCell>
        <mxCell id="k6gAkaUTkc_mp0CV5XvP-22" value="" style="endArrow=ERmandOne;html=1;rounded=0;exitX=0;exitY=0.5;exitDx=0;exitDy=0;endFill=0;entryX=1;entryY=0.25;entryDx=0;entryDy=0;" parent="1" source="k6gAkaUTkc_mp0CV5XvP-8" target="k6gAkaUTkc_mp0CV5XvP-6" edge="1">
          <mxGeometry width="50" height="50" relative="1" as="geometry">
            <mxPoint x="1295" y="335" as="sourcePoint" />
            <mxPoint x="1285" y="250" as="targetPoint" />
            <Array as="points">
              <mxPoint x="1315" y="230" />
              <mxPoint x="1315" y="255" />
            </Array>
          </mxGeometry>
        </mxCell>
        <mxCell id="k6gAkaUTkc_mp0CV5XvP-23" value="" style="endArrow=ERzeroToMany;html=1;rounded=0;entryX=0;entryY=0.25;entryDx=0;entryDy=0;exitX=1;exitY=0.5;exitDx=0;exitDy=0;endFill=0;" parent="1" source="k6gAkaUTkc_mp0CV5XvP-8" target="k6gAkaUTkc_mp0CV5XvP-7" edge="1">
          <mxGeometry width="50" height="50" relative="1" as="geometry">
            <mxPoint x="1515" y="230" as="sourcePoint" />
            <mxPoint x="1425" y="285" as="targetPoint" />
            <Array as="points">
              <mxPoint x="1505" y="230" />
              <mxPoint x="1505" y="255" />
            </Array>
          </mxGeometry>
        </mxCell>
        <mxCell id="k6gAkaUTkc_mp0CV5XvP-24" value="Sucursal" style="rounded=1;arcSize=10;whiteSpace=wrap;html=1;align=center;fillColor=#dae8fc;strokeColor=#6c8ebf;" parent="1" vertex="1">
          <mxGeometry x="1025" y="370" width="100" height="40" as="geometry" />
        </mxCell>
        <mxCell id="k6gAkaUTkc_mp0CV5XvP-25" value="Almacena" style="shape=rhombus;perimeter=rhombusPerimeter;whiteSpace=wrap;html=1;align=center;fillColor=#ffe6cc;strokeColor=#d79b00;" parent="1" vertex="1">
          <mxGeometry x="1015" y="450" width="120" height="50" as="geometry" />
        </mxCell>
        <mxCell id="k6gAkaUTkc_mp0CV5XvP-26" value="Remolques" style="rounded=1;arcSize=10;whiteSpace=wrap;html=1;align=center;fillColor=#dae8fc;strokeColor=#6c8ebf;" parent="1" vertex="1">
          <mxGeometry x="1025" y="530" width="100" height="40" as="geometry" />
        </mxCell>
        <mxCell id="k6gAkaUTkc_mp0CV5XvP-29" value="Tiene" style="shape=rhombus;perimeter=rhombusPerimeter;whiteSpace=wrap;html=1;align=center;fillColor=#ffe6cc;strokeColor=#d79b00;" parent="1" vertex="1">
          <mxGeometry x="925" y="314" width="120" height="50" as="geometry" />
        </mxCell>
        <mxCell id="k6gAkaUTkc_mp0CV5XvP-30" value="Se encuentra en" style="shape=rhombus;perimeter=rhombusPerimeter;whiteSpace=wrap;html=1;align=center;fillColor=#ffe6cc;strokeColor=#d79b00;" parent="1" vertex="1">
          <mxGeometry x="1105" y="315" width="120" height="50" as="geometry" />
        </mxCell>
        <mxCell id="k6gAkaUTkc_mp0CV5XvP-31" value="" style="endArrow=ERmandOne;html=1;rounded=0;entryX=0.5;entryY=1;entryDx=0;entryDy=0;exitX=0.5;exitY=0;exitDx=0;exitDy=0;endFill=0;" parent="1" source="k6gAkaUTkc_mp0CV5XvP-29" target="k6gAkaUTkc_mp0CV5XvP-2" edge="1">
          <mxGeometry width="50" height="50" relative="1" as="geometry">
            <mxPoint x="995" y="370" as="sourcePoint" />
            <mxPoint x="1045" y="320" as="targetPoint" />
            <Array as="points">
              <mxPoint x="985" y="300" />
              <mxPoint x="925" y="300" />
            </Array>
          </mxGeometry>
        </mxCell>
        <mxCell id="k6gAkaUTkc_mp0CV5XvP-32" value="" style="endArrow=ERmandOne;html=1;rounded=0;entryX=0.25;entryY=1;entryDx=0;entryDy=0;exitX=0.5;exitY=0;exitDx=0;exitDy=0;endFill=0;" parent="1" source="k6gAkaUTkc_mp0CV5XvP-30" target="k6gAkaUTkc_mp0CV5XvP-6" edge="1">
          <mxGeometry width="50" height="50" relative="1" as="geometry">
            <mxPoint x="995" y="370" as="sourcePoint" />
            <mxPoint x="1045" y="320" as="targetPoint" />
            <Array as="points">
              <mxPoint x="1165" y="300" />
              <mxPoint x="1200" y="300" />
            </Array>
          </mxGeometry>
        </mxCell>
        <mxCell id="k6gAkaUTkc_mp0CV5XvP-33" value="" style="endArrow=ERoneToMany;html=1;rounded=0;exitX=0.5;exitY=1;exitDx=0;exitDy=0;entryX=0;entryY=0.5;entryDx=0;entryDy=0;endFill=0;" parent="1" source="k6gAkaUTkc_mp0CV5XvP-29" target="k6gAkaUTkc_mp0CV5XvP-24" edge="1">
          <mxGeometry width="50" height="50" relative="1" as="geometry">
            <mxPoint x="995" y="370" as="sourcePoint" />
            <mxPoint x="1055" y="360" as="targetPoint" />
            <Array as="points">
              <mxPoint x="985" y="390" />
            </Array>
          </mxGeometry>
        </mxCell>
        <mxCell id="k6gAkaUTkc_mp0CV5XvP-34" value="" style="endArrow=ERzeroToMany;html=1;rounded=0;exitX=0.5;exitY=1;exitDx=0;exitDy=0;endFill=0;entryX=1;entryY=0.5;entryDx=0;entryDy=0;" parent="1" source="k6gAkaUTkc_mp0CV5XvP-30" target="k6gAkaUTkc_mp0CV5XvP-24" edge="1">
          <mxGeometry width="50" height="50" relative="1" as="geometry">
            <mxPoint x="1095" y="350" as="sourcePoint" />
            <mxPoint x="1155" y="380" as="targetPoint" />
            <Array as="points">
              <mxPoint x="1165" y="390" />
            </Array>
          </mxGeometry>
        </mxCell>
        <mxCell id="k6gAkaUTkc_mp0CV5XvP-35" value="" style="endArrow=ERmandOne;html=1;rounded=0;entryX=0.5;entryY=1;entryDx=0;entryDy=0;exitX=0.5;exitY=0;exitDx=0;exitDy=0;endFill=0;" parent="1" source="k6gAkaUTkc_mp0CV5XvP-25" target="k6gAkaUTkc_mp0CV5XvP-24" edge="1">
          <mxGeometry width="50" height="50" relative="1" as="geometry">
            <mxPoint x="995" y="340" as="sourcePoint" />
            <mxPoint x="1045" y="290" as="targetPoint" />
          </mxGeometry>
        </mxCell>
        <mxCell id="k6gAkaUTkc_mp0CV5XvP-36" value="" style="endArrow=ERoneToMany;html=1;rounded=0;exitX=0.5;exitY=1;exitDx=0;exitDy=0;entryX=0.5;entryY=0;entryDx=0;entryDy=0;endFill=0;" parent="1" source="k6gAkaUTkc_mp0CV5XvP-25" target="k6gAkaUTkc_mp0CV5XvP-26" edge="1">
          <mxGeometry width="50" height="50" relative="1" as="geometry">
            <mxPoint x="995" y="340" as="sourcePoint" />
            <mxPoint x="1045" y="290" as="targetPoint" />
          </mxGeometry>
        </mxCell>
        <mxCell id="k6gAkaUTkc_mp0CV5XvP-48" value="Línea de envío" style="rounded=1;arcSize=10;whiteSpace=wrap;html=1;align=center;fillColor=#dae8fc;strokeColor=#6c8ebf;" parent="1" vertex="1">
          <mxGeometry x="685" y="690" width="100" height="40" as="geometry" />
        </mxCell>
        <mxCell id="k6gAkaUTkc_mp0CV5XvP-62" value="Movimiento de caja" style="rounded=1;arcSize=10;whiteSpace=wrap;html=1;align=center;fillColor=#dae8fc;strokeColor=#6c8ebf;" parent="1" vertex="1">
          <mxGeometry x="155" y="370" width="120" height="40" as="geometry" />
        </mxCell>
        <mxCell id="k6gAkaUTkc_mp0CV5XvP-64" value="Recibe" style="shape=rhombus;perimeter=rhombusPerimeter;whiteSpace=wrap;html=1;align=center;fillColor=#ffe6cc;strokeColor=#d79b00;" parent="1" vertex="1">
          <mxGeometry x="1355" y="280" width="120" height="50" as="geometry" />
        </mxCell>
        <mxCell id="5jimEdN-B-V5lsOgfbOn-3" value="" style="endArrow=ERoneToMany;html=1;rounded=0;entryX=1;entryY=0.75;entryDx=0;entryDy=0;endFill=0;exitX=0;exitY=0.5;exitDx=0;exitDy=0;" parent="1" source="k6gAkaUTkc_mp0CV5XvP-64" target="k6gAkaUTkc_mp0CV5XvP-6" edge="1">
          <mxGeometry width="50" height="50" relative="1" as="geometry">
            <mxPoint x="1345" y="280" as="sourcePoint" />
            <mxPoint x="1325" y="310" as="targetPoint" />
            <Array as="points">
              <mxPoint x="1315" y="305" />
              <mxPoint x="1315" y="275" />
            </Array>
          </mxGeometry>
        </mxCell>
        <mxCell id="5jimEdN-B-V5lsOgfbOn-4" value="" style="endArrow=ERzeroToMany;html=1;rounded=0;exitX=1;exitY=0.5;exitDx=0;exitDy=0;endFill=0;entryX=0;entryY=0.75;entryDx=0;entryDy=0;" parent="1" source="k6gAkaUTkc_mp0CV5XvP-64" target="k6gAkaUTkc_mp0CV5XvP-7" edge="1">
          <mxGeometry width="50" height="50" relative="1" as="geometry">
            <mxPoint x="1355" y="360" as="sourcePoint" />
            <mxPoint x="1525" y="290" as="targetPoint" />
            <Array as="points">
              <mxPoint x="1505" y="305" />
              <mxPoint x="1505" y="275" />
            </Array>
          </mxGeometry>
        </mxCell>
        <mxCell id="5jimEdN-B-V5lsOgfbOn-5" value="Maneja" style="shape=rhombus;perimeter=rhombusPerimeter;whiteSpace=wrap;html=1;align=center;fillColor=#ffe6cc;strokeColor=#d79b00;" parent="1" vertex="1">
          <mxGeometry x="815" y="365" width="120" height="50" as="geometry" />
        </mxCell>
        <mxCell id="5jimEdN-B-V5lsOgfbOn-6" value="" style="endArrow=ERmandOne;html=1;rounded=0;exitX=0.5;exitY=0;exitDx=0;exitDy=0;endFill=0;entryX=0.2;entryY=1.005;entryDx=0;entryDy=0;entryPerimeter=0;" parent="1" source="5jimEdN-B-V5lsOgfbOn-5" target="k6gAkaUTkc_mp0CV5XvP-2" edge="1">
          <mxGeometry width="50" height="50" relative="1" as="geometry">
            <mxPoint x="895" y="360" as="sourcePoint" />
            <mxPoint x="895" y="290" as="targetPoint" />
            <Array as="points">
              <mxPoint x="875" y="330" />
              <mxPoint x="895" y="330" />
            </Array>
          </mxGeometry>
        </mxCell>
        <mxCell id="5jimEdN-B-V5lsOgfbOn-7" value="" style="endArrow=ERoneToMany;html=1;rounded=0;exitX=0;exitY=0.5;exitDx=0;exitDy=0;endFill=0;entryX=0.5;entryY=0;entryDx=0;entryDy=0;" parent="1" source="5jimEdN-B-V5lsOgfbOn-5" target="k6gAkaUTkc_mp0CV5XvP-37" edge="1">
          <mxGeometry width="50" height="50" relative="1" as="geometry">
            <mxPoint x="785" y="495" as="sourcePoint" />
            <mxPoint x="725" y="460" as="targetPoint" />
            <Array as="points">
              <mxPoint x="735" y="390" />
            </Array>
          </mxGeometry>
        </mxCell>
        <mxCell id="5jimEdN-B-V5lsOgfbOn-10" value="Maneja por" style="shape=rhombus;perimeter=rhombusPerimeter;whiteSpace=wrap;html=1;align=center;fillColor=#ffe6cc;strokeColor=#d79b00;" parent="1" vertex="1">
          <mxGeometry x="1015" y="595" width="120" height="50" as="geometry" />
        </mxCell>
        <mxCell id="5jimEdN-B-V5lsOgfbOn-11" value="" style="endArrow=ERmandOne;html=1;rounded=0;entryX=0.5;entryY=1;entryDx=0;entryDy=0;exitX=0.5;exitY=0;exitDx=0;exitDy=0;endFill=0;" parent="1" source="5jimEdN-B-V5lsOgfbOn-10" target="k6gAkaUTkc_mp0CV5XvP-26" edge="1">
          <mxGeometry width="50" height="50" relative="1" as="geometry">
            <mxPoint x="915" y="510" as="sourcePoint" />
            <mxPoint x="965" y="460" as="targetPoint" />
          </mxGeometry>
        </mxCell>
        <mxCell id="5jimEdN-B-V5lsOgfbOn-17" value="Viaje" style="shape=ext;margin=3;double=1;whiteSpace=wrap;html=1;align=center;fillColor=light-dark(#f4f7fb, #1d293b);strokeColor=#6c8ebf;" parent="1" vertex="1">
          <mxGeometry x="485" y="490" width="100" height="40" as="geometry" />
        </mxCell>
        <mxCell id="5jimEdN-B-V5lsOgfbOn-18" value="" style="endArrow=ERoneToMany;html=1;rounded=0;entryX=0.75;entryY=0;entryDx=0;entryDy=0;endFill=0;exitX=0.5;exitY=1;exitDx=0;exitDy=0;" parent="1" source="5jimEdN-B-V5lsOgfbOn-10" target="k6gAkaUTkc_mp0CV5XvP-48" edge="1">
          <mxGeometry width="50" height="50" relative="1" as="geometry">
            <mxPoint x="905" y="660" as="sourcePoint" />
            <mxPoint x="875" y="450" as="targetPoint" />
            <Array as="points">
              <mxPoint x="1075" y="670" />
              <mxPoint x="760" y="670" />
            </Array>
          </mxGeometry>
        </mxCell>
        <mxCell id="5jimEdN-B-V5lsOgfbOn-19" value="Transporta" style="shape=rhombus;perimeter=rhombusPerimeter;whiteSpace=wrap;html=1;align=center;fillColor=#ffe6cc;strokeColor=#d79b00;" parent="1" vertex="1">
          <mxGeometry x="556" y="435" width="120" height="50" as="geometry" />
        </mxCell>
        <mxCell id="5jimEdN-B-V5lsOgfbOn-20" value="Contiene" style="shape=rhombus;perimeter=rhombusPerimeter;whiteSpace=wrap;html=1;align=center;fillColor=#ffe6cc;strokeColor=#d79b00;" parent="1" vertex="1">
          <mxGeometry x="675" y="590" width="120" height="50" as="geometry" />
        </mxCell>
        <mxCell id="5jimEdN-B-V5lsOgfbOn-21" value="Realiza" style="shape=rhombus;perimeter=rhombusPerimeter;whiteSpace=wrap;html=1;align=center;fillColor=#ffe6cc;strokeColor=#d79b00;" parent="1" vertex="1">
          <mxGeometry x="325" y="485" width="120" height="50" as="geometry" />
        </mxCell>
        <mxCell id="5jimEdN-B-V5lsOgfbOn-25" value="" style="endArrow=ERmandOne;html=1;rounded=0;entryX=0.5;entryY=1;entryDx=0;entryDy=0;exitX=0.5;exitY=0;exitDx=0;exitDy=0;endFill=0;" parent="1" source="5jimEdN-B-V5lsOgfbOn-20" target="k6gAkaUTkc_mp0CV5XvP-37" edge="1">
          <mxGeometry width="50" height="50" relative="1" as="geometry">
            <mxPoint x="715" y="580" as="sourcePoint" />
            <mxPoint x="765" y="530" as="targetPoint" />
          </mxGeometry>
        </mxCell>
        <mxCell id="5jimEdN-B-V5lsOgfbOn-30" value="" style="endArrow=ERoneToMany;html=1;rounded=0;exitX=0.5;exitY=1;exitDx=0;exitDy=0;endFill=0;entryX=0.5;entryY=0;entryDx=0;entryDy=0;" parent="1" source="5jimEdN-B-V5lsOgfbOn-20" target="k6gAkaUTkc_mp0CV5XvP-48" edge="1">
          <mxGeometry width="50" height="50" relative="1" as="geometry">
            <mxPoint x="675" y="580" as="sourcePoint" />
            <mxPoint x="765" y="660" as="targetPoint" />
          </mxGeometry>
        </mxCell>
        <mxCell id="5jimEdN-B-V5lsOgfbOn-34" value="Parte de" style="shape=rhombus;perimeter=rhombusPerimeter;whiteSpace=wrap;html=1;align=center;fillColor=#ffe6cc;strokeColor=#d79b00;" parent="1" vertex="1">
          <mxGeometry x="1225" y="430" width="120" height="50" as="geometry" />
        </mxCell>
        <mxCell id="5jimEdN-B-V5lsOgfbOn-35" value="Termina en" style="shape=rhombus;perimeter=rhombusPerimeter;whiteSpace=wrap;html=1;align=center;fillColor=#ffe6cc;strokeColor=#d79b00;" parent="1" vertex="1">
          <mxGeometry x="1375" y="430" width="120" height="50" as="geometry" />
        </mxCell>
        <mxCell id="5jimEdN-B-V5lsOgfbOn-38" value="" style="endArrow=ERmandOne;html=1;rounded=0;entryX=0.6;entryY=0.995;entryDx=0;entryDy=0;exitX=0.5;exitY=0;exitDx=0;exitDy=0;endFill=0;entryPerimeter=0;" parent="1" source="5jimEdN-B-V5lsOgfbOn-34" target="k6gAkaUTkc_mp0CV5XvP-6" edge="1">
          <mxGeometry width="50" height="50" relative="1" as="geometry">
            <mxPoint x="1135" y="480" as="sourcePoint" />
            <mxPoint x="1185" y="430" as="targetPoint" />
            <Array as="points">
              <mxPoint x="1285" y="370" />
              <mxPoint x="1235" y="370" />
            </Array>
          </mxGeometry>
        </mxCell>
        <mxCell id="5jimEdN-B-V5lsOgfbOn-39" value="" style="endArrow=ERmandOne;html=1;rounded=0;entryX=0.799;entryY=1.002;entryDx=0;entryDy=0;exitX=0.5;exitY=0;exitDx=0;exitDy=0;endFill=0;entryPerimeter=0;" parent="1" source="5jimEdN-B-V5lsOgfbOn-35" target="k6gAkaUTkc_mp0CV5XvP-6" edge="1">
          <mxGeometry width="50" height="50" relative="1" as="geometry">
            <mxPoint x="1135" y="480" as="sourcePoint" />
            <mxPoint x="1185" y="430" as="targetPoint" />
            <Array as="points">
              <mxPoint x="1435" y="350" />
              <mxPoint x="1255" y="350" />
            </Array>
          </mxGeometry>
        </mxCell>
        <mxCell id="5jimEdN-B-V5lsOgfbOn-40" value="Paga" style="shape=rhombus;perimeter=rhombusPerimeter;whiteSpace=wrap;html=1;align=center;fillColor=#ffe6cc;strokeColor=#d79b00;" parent="1" vertex="1">
          <mxGeometry x="315" y="580" width="120" height="50" as="geometry" />
        </mxCell>
        <mxCell id="5jimEdN-B-V5lsOgfbOn-41" value="Recibe" style="shape=rhombus;perimeter=rhombusPerimeter;whiteSpace=wrap;html=1;align=center;fillColor=#ffe6cc;strokeColor=#d79b00;" parent="1" vertex="1">
          <mxGeometry x="255" y="205" width="120" height="50" as="geometry" />
        </mxCell>
        <mxCell id="5jimEdN-B-V5lsOgfbOn-42" value="" style="endArrow=ERzeroToMany;html=1;rounded=0;entryX=0.5;entryY=0;entryDx=0;entryDy=0;endFill=0;exitX=0;exitY=0.5;exitDx=0;exitDy=0;" parent="1" source="5jimEdN-B-V5lsOgfbOn-41" target="k6gAkaUTkc_mp0CV5XvP-62" edge="1">
          <mxGeometry width="50" height="50" relative="1" as="geometry">
            <mxPoint x="225" y="320" as="sourcePoint" />
            <mxPoint x="755" y="450" as="targetPoint" />
            <Array as="points">
              <mxPoint x="215" y="230" />
            </Array>
          </mxGeometry>
        </mxCell>
        <mxCell id="5jimEdN-B-V5lsOgfbOn-43" value="" style="endArrow=ERzeroToMany;html=1;rounded=0;exitX=1;exitY=0.5;exitDx=0;exitDy=0;entryX=0;entryY=0.5;entryDx=0;entryDy=0;endFill=0;" parent="1" source="5jimEdN-B-V5lsOgfbOn-41" target="ZdwJ0yHTc_Pz8evwpBD1-14" edge="1">
          <mxGeometry width="50" height="50" relative="1" as="geometry">
            <mxPoint x="615" y="500" as="sourcePoint" />
            <mxPoint x="665" y="450" as="targetPoint" />
          </mxGeometry>
        </mxCell>
        <mxCell id="5jimEdN-B-V5lsOgfbOn-45" value="" style="endArrow=ERmandOne;html=1;rounded=0;entryX=0.5;entryY=1;entryDx=0;entryDy=0;endFill=0;exitX=0;exitY=0.5;exitDx=0;exitDy=0;" parent="1" source="5jimEdN-B-V5lsOgfbOn-40" target="k6gAkaUTkc_mp0CV5XvP-62" edge="1">
          <mxGeometry width="50" height="50" relative="1" as="geometry">
            <mxPoint x="125" y="570" as="sourcePoint" />
            <mxPoint x="305" y="480" as="targetPoint" />
            <Array as="points">
              <mxPoint x="215" y="605" />
            </Array>
          </mxGeometry>
        </mxCell>
        <mxCell id="5jimEdN-B-V5lsOgfbOn-47" value="" style="endArrow=ERoneToMany;html=1;rounded=0;entryX=0.25;entryY=0;entryDx=0;entryDy=0;exitX=1;exitY=0.5;exitDx=0;exitDy=0;endFill=0;" parent="1" source="5jimEdN-B-V5lsOgfbOn-19" target="k6gAkaUTkc_mp0CV5XvP-37" edge="1">
          <mxGeometry width="50" height="50" relative="1" as="geometry">
            <mxPoint x="545" y="530" as="sourcePoint" />
            <mxPoint x="595" y="480" as="targetPoint" />
            <Array as="points">
              <mxPoint x="710" y="460" />
            </Array>
          </mxGeometry>
        </mxCell>
        <mxCell id="5jimEdN-B-V5lsOgfbOn-48" value="" style="endArrow=ERmandOne;html=1;rounded=0;entryX=0.203;entryY=0.99;entryDx=0;entryDy=0;exitX=0.5;exitY=0;exitDx=0;exitDy=0;endFill=0;entryPerimeter=0;" parent="1" source="5jimEdN-B-V5lsOgfbOn-21" target="k6gAkaUTkc_mp0CV5XvP-1" edge="1">
          <mxGeometry width="50" height="50" relative="1" as="geometry">
            <mxPoint x="545" y="530" as="sourcePoint" />
            <mxPoint x="595" y="480" as="targetPoint" />
            <Array as="points">
              <mxPoint x="385" y="460" />
              <mxPoint x="515" y="460" />
            </Array>
          </mxGeometry>
        </mxCell>
        <mxCell id="5jimEdN-B-V5lsOgfbOn-49" value="" style="endArrow=ERzeroToMany;html=1;rounded=0;exitX=1;exitY=0.5;exitDx=0;exitDy=0;entryX=0;entryY=0.5;entryDx=0;entryDy=0;endFill=0;" parent="1" source="5jimEdN-B-V5lsOgfbOn-21" target="5jimEdN-B-V5lsOgfbOn-17" edge="1">
          <mxGeometry width="50" height="50" relative="1" as="geometry">
            <mxPoint x="545" y="530" as="sourcePoint" />
            <mxPoint x="595" y="480" as="targetPoint" />
          </mxGeometry>
        </mxCell>
        <mxCell id="5jimEdN-B-V5lsOgfbOn-50" value="" style="endArrow=ERmandOne;html=1;rounded=0;exitX=0;exitY=0.5;exitDx=0;exitDy=0;endFill=0;entryX=0.5;entryY=0;entryDx=0;entryDy=0;" parent="1" source="5jimEdN-B-V5lsOgfbOn-19" target="5jimEdN-B-V5lsOgfbOn-17" edge="1">
          <mxGeometry width="50" height="50" relative="1" as="geometry">
            <mxPoint x="545" y="530" as="sourcePoint" />
            <mxPoint x="525" y="480" as="targetPoint" />
            <Array as="points">
              <mxPoint x="535" y="460" />
            </Array>
          </mxGeometry>
        </mxCell>
        <mxCell id="XFZ_bY-56fwhlHVYq8WO-1" value="Fecha de registro" style="ellipse;whiteSpace=wrap;html=1;align=center;fillColor=#f8cecc;strokeColor=#b85450;" parent="1" vertex="1">
          <mxGeometry x="315" y="364" width="90" height="40" as="geometry" />
        </mxCell>
        <mxCell id="XFZ_bY-56fwhlHVYq8WO-2" value="Matrícula" style="ellipse;whiteSpace=wrap;html=1;align=center;fontStyle=4;fillColor=#f8cecc;strokeColor=#b85450;" parent="1" vertex="1">
          <mxGeometry x="365" y="320" width="100" height="40" as="geometry" />
        </mxCell>
        <mxCell id="XFZ_bY-56fwhlHVYq8WO-3" value="Peso máximo" style="ellipse;whiteSpace=wrap;html=1;align=center;fillColor=#f8cecc;strokeColor=#b85450;" parent="1" vertex="1">
          <mxGeometry x="355" y="408" width="90" height="40" as="geometry" />
        </mxCell>
        <mxCell id="XFZ_bY-56fwhlHVYq8WO-4" value="" style="endArrow=none;html=1;rounded=0;entryX=1;entryY=1;entryDx=0;entryDy=0;exitX=0;exitY=0.5;exitDx=0;exitDy=0;" parent="1" source="k6gAkaUTkc_mp0CV5XvP-1" target="XFZ_bY-56fwhlHVYq8WO-2" edge="1">
          <mxGeometry width="50" height="50" relative="1" as="geometry">
            <mxPoint x="285" y="380" as="sourcePoint" />
            <mxPoint x="335" y="330" as="targetPoint" />
          </mxGeometry>
        </mxCell>
        <mxCell id="XFZ_bY-56fwhlHVYq8WO-5" value="" style="endArrow=none;html=1;rounded=0;exitX=1;exitY=0.5;exitDx=0;exitDy=0;entryX=0;entryY=0.5;entryDx=0;entryDy=0;" parent="1" source="XFZ_bY-56fwhlHVYq8WO-1" target="k6gAkaUTkc_mp0CV5XvP-1" edge="1">
          <mxGeometry width="50" height="50" relative="1" as="geometry">
            <mxPoint x="285" y="380" as="sourcePoint" />
            <mxPoint x="335" y="330" as="targetPoint" />
          </mxGeometry>
        </mxCell>
        <mxCell id="XFZ_bY-56fwhlHVYq8WO-6" value="" style="endArrow=none;html=1;rounded=0;entryX=0;entryY=0.5;entryDx=0;entryDy=0;exitX=1;exitY=0.5;exitDx=0;exitDy=0;" parent="1" source="XFZ_bY-56fwhlHVYq8WO-3" target="k6gAkaUTkc_mp0CV5XvP-1" edge="1">
          <mxGeometry width="50" height="50" relative="1" as="geometry">
            <mxPoint x="355" y="430" as="sourcePoint" />
            <mxPoint x="405" y="380" as="targetPoint" />
          </mxGeometry>
        </mxCell>
        <mxCell id="XFZ_bY-56fwhlHVYq8WO-7" value="" style="endArrow=none;html=1;rounded=0;exitX=0.5;exitY=0;exitDx=0;exitDy=0;entryX=0.5;entryY=1;entryDx=0;entryDy=0;" parent="1" source="k6gAkaUTkc_mp0CV5XvP-2" target="XFZ_bY-56fwhlHVYq8WO-8" edge="1">
          <mxGeometry width="50" height="50" relative="1" as="geometry">
            <mxPoint x="570" y="248" as="sourcePoint" />
            <mxPoint x="545" y="240" as="targetPoint" />
          </mxGeometry>
        </mxCell>
        <mxCell id="XFZ_bY-56fwhlHVYq8WO-8" value="Tarifa estipulada" style="ellipse;whiteSpace=wrap;html=1;align=center;fillColor=#f8cecc;strokeColor=#b85450;" parent="1" vertex="1">
          <mxGeometry x="885" y="180" width="80" height="40" as="geometry" />
        </mxCell>
        <mxCell id="XFZ_bY-56fwhlHVYq8WO-11" value="Número de conductor" style="ellipse;whiteSpace=wrap;html=1;align=center;fontStyle=4;fillColor=#f8cecc;strokeColor=#b85450;" parent="1" vertex="1">
          <mxGeometry x="365" y="172.5" width="100" height="40" as="geometry" />
        </mxCell>
        <mxCell id="XFZ_bY-56fwhlHVYq8WO-12" value="Nombre" style="ellipse;whiteSpace=wrap;html=1;align=center;fillColor=#f8cecc;strokeColor=#b85450;" parent="1" vertex="1">
          <mxGeometry x="395" y="135" width="70" height="30" as="geometry" />
        </mxCell>
        <mxCell id="XFZ_bY-56fwhlHVYq8WO-13" value="" style="endArrow=none;html=1;rounded=0;exitX=0.25;exitY=0;exitDx=0;exitDy=0;entryX=1;entryY=1;entryDx=0;entryDy=0;" parent="1" source="ZdwJ0yHTc_Pz8evwpBD1-14" target="Sdfdn7-9RXj5G68LIbd9-5" edge="1">
          <mxGeometry width="50" height="50" relative="1" as="geometry">
            <mxPoint x="455" y="320" as="sourcePoint" />
            <mxPoint x="483.284271247462" y="129.14213562373095" as="targetPoint" />
          </mxGeometry>
        </mxCell>
        <mxCell id="XFZ_bY-56fwhlHVYq8WO-16" value="Dirección" style="ellipse;whiteSpace=wrap;html=1;align=center;fillColor=#f8cecc;strokeColor=#b85450;" parent="1" vertex="1">
          <mxGeometry x="505" y="105" width="80" height="30" as="geometry" />
        </mxCell>
        <mxCell id="XFZ_bY-56fwhlHVYq8WO-17" value="Teléfono" style="ellipse;whiteSpace=wrap;html=1;align=center;fillColor=#f8cecc;strokeColor=#b85450;" parent="1" vertex="1">
          <mxGeometry x="645" y="142.5" width="70" height="30" as="geometry" />
        </mxCell>
        <mxCell id="XFZ_bY-56fwhlHVYq8WO-18" value="Contratado" style="ellipse;whiteSpace=wrap;html=1;align=center;fillColor=#f8cecc;strokeColor=#b85450;" parent="1" vertex="1">
          <mxGeometry x="625" y="185" width="80" height="30" as="geometry" />
        </mxCell>
        <mxCell id="XFZ_bY-56fwhlHVYq8WO-19" value="Ciudad" style="ellipse;whiteSpace=wrap;html=1;align=center;fillColor=#f8cecc;strokeColor=#b85450;" parent="1" vertex="1">
          <mxGeometry x="565" y="50" width="80" height="30" as="geometry" />
        </mxCell>
        <mxCell id="XFZ_bY-56fwhlHVYq8WO-20" value="Estado" style="ellipse;whiteSpace=wrap;html=1;align=center;fillColor=#f8cecc;strokeColor=#b85450;" parent="1" vertex="1">
          <mxGeometry x="465" y="50" width="80" height="30" as="geometry" />
        </mxCell>
        <mxCell id="XFZ_bY-56fwhlHVYq8WO-21" value="" style="endArrow=none;html=1;rounded=0;entryX=0.5;entryY=1;entryDx=0;entryDy=0;exitX=0.5;exitY=0;exitDx=0;exitDy=0;" parent="1" source="XFZ_bY-56fwhlHVYq8WO-16" target="XFZ_bY-56fwhlHVYq8WO-19" edge="1">
          <mxGeometry width="50" height="50" relative="1" as="geometry">
            <mxPoint x="605" y="220" as="sourcePoint" />
            <mxPoint x="655" y="170" as="targetPoint" />
          </mxGeometry>
        </mxCell>
        <mxCell id="XFZ_bY-56fwhlHVYq8WO-22" value="" style="endArrow=none;html=1;rounded=0;entryX=0.5;entryY=1;entryDx=0;entryDy=0;exitX=0.5;exitY=0;exitDx=0;exitDy=0;" parent="1" source="XFZ_bY-56fwhlHVYq8WO-16" target="XFZ_bY-56fwhlHVYq8WO-20" edge="1">
          <mxGeometry width="50" height="50" relative="1" as="geometry">
            <mxPoint x="605" y="190" as="sourcePoint" />
            <mxPoint x="655" y="140" as="targetPoint" />
          </mxGeometry>
        </mxCell>
        <mxCell id="XFZ_bY-56fwhlHVYq8WO-23" value="" style="endArrow=none;html=1;rounded=0;exitX=0.25;exitY=0;exitDx=0;exitDy=0;entryX=1;entryY=0.5;entryDx=0;entryDy=0;" parent="1" source="ZdwJ0yHTc_Pz8evwpBD1-14" target="XFZ_bY-56fwhlHVYq8WO-11" edge="1">
          <mxGeometry width="50" height="50" relative="1" as="geometry">
            <mxPoint x="625" y="190" as="sourcePoint" />
            <mxPoint x="675" y="140" as="targetPoint" />
          </mxGeometry>
        </mxCell>
        <mxCell id="XFZ_bY-56fwhlHVYq8WO-24" value="" style="endArrow=none;html=1;rounded=0;entryX=1;entryY=0.5;entryDx=0;entryDy=0;exitX=0.25;exitY=0;exitDx=0;exitDy=0;" parent="1" source="ZdwJ0yHTc_Pz8evwpBD1-14" target="XFZ_bY-56fwhlHVYq8WO-12" edge="1">
          <mxGeometry width="50" height="50" relative="1" as="geometry">
            <mxPoint x="625" y="190" as="sourcePoint" />
            <mxPoint x="675" y="140" as="targetPoint" />
          </mxGeometry>
        </mxCell>
        <mxCell id="XFZ_bY-56fwhlHVYq8WO-25" value="" style="endArrow=none;html=1;rounded=0;exitX=0.5;exitY=0;exitDx=0;exitDy=0;entryX=0.5;entryY=1;entryDx=0;entryDy=0;" parent="1" source="ZdwJ0yHTc_Pz8evwpBD1-14" target="XFZ_bY-56fwhlHVYq8WO-16" edge="1">
          <mxGeometry width="50" height="50" relative="1" as="geometry">
            <mxPoint x="535" y="190" as="sourcePoint" />
            <mxPoint x="585" y="140" as="targetPoint" />
          </mxGeometry>
        </mxCell>
        <mxCell id="XFZ_bY-56fwhlHVYq8WO-26" value="" style="endArrow=none;html=1;rounded=0;exitX=0.75;exitY=0;exitDx=0;exitDy=0;entryX=0;entryY=1;entryDx=0;entryDy=0;" parent="1" source="ZdwJ0yHTc_Pz8evwpBD1-14" target="Sdfdn7-9RXj5G68LIbd9-6" edge="1">
          <mxGeometry width="50" height="50" relative="1" as="geometry">
            <mxPoint x="555" y="212.5" as="sourcePoint" />
            <mxPoint x="602.3223304703363" y="138.83883476483186" as="targetPoint" />
          </mxGeometry>
        </mxCell>
        <mxCell id="XFZ_bY-56fwhlHVYq8WO-27" value="" style="endArrow=none;html=1;rounded=0;exitX=0.75;exitY=0;exitDx=0;exitDy=0;entryX=0;entryY=0.5;entryDx=0;entryDy=0;" parent="1" source="ZdwJ0yHTc_Pz8evwpBD1-14" target="XFZ_bY-56fwhlHVYq8WO-17" edge="1">
          <mxGeometry width="50" height="50" relative="1" as="geometry">
            <mxPoint x="535" y="190" as="sourcePoint" />
            <mxPoint x="585" y="140" as="targetPoint" />
          </mxGeometry>
        </mxCell>
        <mxCell id="XFZ_bY-56fwhlHVYq8WO-28" value="" style="endArrow=none;html=1;rounded=0;exitX=1;exitY=0.25;exitDx=0;exitDy=0;entryX=0;entryY=0.5;entryDx=0;entryDy=0;" parent="1" source="ZdwJ0yHTc_Pz8evwpBD1-14" target="XFZ_bY-56fwhlHVYq8WO-18" edge="1">
          <mxGeometry width="50" height="50" relative="1" as="geometry">
            <mxPoint x="535" y="190" as="sourcePoint" />
            <mxPoint x="585" y="140" as="targetPoint" />
          </mxGeometry>
        </mxCell>
        <mxCell id="XFZ_bY-56fwhlHVYq8WO-31" value="Tiempo" style="ellipse;whiteSpace=wrap;html=1;align=center;fillColor=#f8cecc;strokeColor=#b85450;" parent="1" vertex="1">
          <mxGeometry x="1505" y="354" width="70" height="25" as="geometry" />
        </mxCell>
        <mxCell id="XFZ_bY-56fwhlHVYq8WO-32" value="Distancia" style="ellipse;whiteSpace=wrap;html=1;align=center;fillColor=#f8cecc;strokeColor=#b85450;" parent="1" vertex="1">
          <mxGeometry x="1505" y="314" width="70" height="26" as="geometry" />
        </mxCell>
        <mxCell id="XFZ_bY-56fwhlHVYq8WO-33" value="" style="endArrow=none;html=1;rounded=0;entryX=0;entryY=0.5;entryDx=0;entryDy=0;exitX=1;exitY=1;exitDx=0;exitDy=0;" parent="1" source="k6gAkaUTkc_mp0CV5XvP-64" target="XFZ_bY-56fwhlHVYq8WO-32" edge="1">
          <mxGeometry width="50" height="50" relative="1" as="geometry">
            <mxPoint x="1395" y="370" as="sourcePoint" />
            <mxPoint x="1445" y="320" as="targetPoint" />
          </mxGeometry>
        </mxCell>
        <mxCell id="XFZ_bY-56fwhlHVYq8WO-34" value="" style="endArrow=none;html=1;rounded=0;entryX=1;entryY=1;entryDx=0;entryDy=0;exitX=0;exitY=0.5;exitDx=0;exitDy=0;" parent="1" source="XFZ_bY-56fwhlHVYq8WO-31" target="k6gAkaUTkc_mp0CV5XvP-64" edge="1">
          <mxGeometry width="50" height="50" relative="1" as="geometry">
            <mxPoint x="1395" y="370" as="sourcePoint" />
            <mxPoint x="1445" y="320" as="targetPoint" />
          </mxGeometry>
        </mxCell>
        <mxCell id="XFZ_bY-56fwhlHVYq8WO-35" value="" style="endArrow=none;html=1;rounded=0;exitX=0;exitY=0.5;exitDx=0;exitDy=0;entryX=1;entryY=0;entryDx=0;entryDy=0;" parent="1" source="XFZ_bY-56fwhlHVYq8WO-43" target="k6gAkaUTkc_mp0CV5XvP-8" edge="1">
          <mxGeometry width="50" height="50" relative="1" as="geometry">
            <mxPoint x="1465" y="150" as="sourcePoint" />
            <mxPoint x="1445" y="230" as="targetPoint" />
          </mxGeometry>
        </mxCell>
        <mxCell id="XFZ_bY-56fwhlHVYq8WO-36" value="" style="endArrow=none;html=1;rounded=0;entryX=0;entryY=0.5;entryDx=0;entryDy=0;exitX=1;exitY=0;exitDx=0;exitDy=0;" parent="1" source="k6gAkaUTkc_mp0CV5XvP-8" target="XFZ_bY-56fwhlHVYq8WO-42" edge="1">
          <mxGeometry width="50" height="50" relative="1" as="geometry">
            <mxPoint x="1395" y="280" as="sourcePoint" />
            <mxPoint x="1465" y="200" as="targetPoint" />
          </mxGeometry>
        </mxCell>
        <mxCell id="XFZ_bY-56fwhlHVYq8WO-37" value="Número" style="ellipse;whiteSpace=wrap;html=1;align=center;fontStyle=4;fillColor=#f8cecc;strokeColor=#b85450;" parent="1" vertex="1">
          <mxGeometry x="1695" y="230" width="70" height="30" as="geometry" />
        </mxCell>
        <mxCell id="XFZ_bY-56fwhlHVYq8WO-38" value="Nombre" style="ellipse;whiteSpace=wrap;html=1;align=center;fillColor=#f8cecc;strokeColor=#b85450;" parent="1" vertex="1">
          <mxGeometry x="1695" y="270" width="70" height="30" as="geometry" />
        </mxCell>
        <mxCell id="XFZ_bY-56fwhlHVYq8WO-42" value="Tiempo" style="ellipse;whiteSpace=wrap;html=1;align=center;fillColor=#f8cecc;strokeColor=#b85450;" parent="1" vertex="1">
          <mxGeometry x="1505" y="190" width="70" height="25" as="geometry" />
        </mxCell>
        <mxCell id="XFZ_bY-56fwhlHVYq8WO-43" value="Distancia" style="ellipse;whiteSpace=wrap;html=1;align=center;fillColor=#f8cecc;strokeColor=#b85450;" parent="1" vertex="1">
          <mxGeometry x="1505" y="150" width="70" height="26" as="geometry" />
        </mxCell>
        <mxCell id="XFZ_bY-56fwhlHVYq8WO-44" value="" style="endArrow=none;html=1;rounded=0;entryX=0;entryY=0.5;entryDx=0;entryDy=0;exitX=1;exitY=0.25;exitDx=0;exitDy=0;" parent="1" source="k6gAkaUTkc_mp0CV5XvP-7" target="XFZ_bY-56fwhlHVYq8WO-37" edge="1">
          <mxGeometry width="50" height="50" relative="1" as="geometry">
            <mxPoint x="1545" y="240" as="sourcePoint" />
            <mxPoint x="1595" y="190" as="targetPoint" />
          </mxGeometry>
        </mxCell>
        <mxCell id="XFZ_bY-56fwhlHVYq8WO-45" value="" style="endArrow=none;html=1;rounded=0;entryX=0;entryY=0.5;entryDx=0;entryDy=0;exitX=1;exitY=0.75;exitDx=0;exitDy=0;" parent="1" source="k6gAkaUTkc_mp0CV5XvP-7" target="XFZ_bY-56fwhlHVYq8WO-38" edge="1">
          <mxGeometry width="50" height="50" relative="1" as="geometry">
            <mxPoint x="1615" y="290" as="sourcePoint" />
            <mxPoint x="1665" y="240" as="targetPoint" />
          </mxGeometry>
        </mxCell>
        <mxCell id="XFZ_bY-56fwhlHVYq8WO-46" value="Matrícula" style="ellipse;whiteSpace=wrap;html=1;align=center;fontStyle=4;fillColor=#f8cecc;strokeColor=#b85450;" parent="1" vertex="1">
          <mxGeometry x="1155" y="510" width="80" height="30" as="geometry" />
        </mxCell>
        <mxCell id="XFZ_bY-56fwhlHVYq8WO-48" value="Peso con carga" style="ellipse;whiteSpace=wrap;html=1;align=center;fillColor=#f8cecc;strokeColor=#b85450;" parent="1" vertex="1">
          <mxGeometry x="1155" y="550" width="80" height="40" as="geometry" />
        </mxCell>
        <mxCell id="XFZ_bY-56fwhlHVYq8WO-49" value="Peso de&amp;nbsp; carga" style="ellipse;whiteSpace=wrap;html=1;align=center;fillColor=#f8cecc;strokeColor=#b85450;" parent="1" vertex="1">
          <mxGeometry x="915" y="550" width="80" height="40" as="geometry" />
        </mxCell>
        <mxCell id="XFZ_bY-56fwhlHVYq8WO-50" value="Peso total" style="ellipse;whiteSpace=wrap;html=1;align=center;dashed=1;fillColor=#f8cecc;strokeColor=#b85450;" parent="1" vertex="1">
          <mxGeometry x="915" y="510" width="80" height="30" as="geometry" />
        </mxCell>
        <mxCell id="XFZ_bY-56fwhlHVYq8WO-51" value="" style="endArrow=none;html=1;rounded=0;exitX=1;exitY=0.5;exitDx=0;exitDy=0;entryX=0;entryY=0.25;entryDx=0;entryDy=0;" parent="1" source="XFZ_bY-56fwhlHVYq8WO-50" target="k6gAkaUTkc_mp0CV5XvP-26" edge="1">
          <mxGeometry width="50" height="50" relative="1" as="geometry">
            <mxPoint x="1025" y="580" as="sourcePoint" />
            <mxPoint x="1075" y="530" as="targetPoint" />
          </mxGeometry>
        </mxCell>
        <mxCell id="XFZ_bY-56fwhlHVYq8WO-52" value="" style="endArrow=none;html=1;rounded=0;exitX=1;exitY=0.5;exitDx=0;exitDy=0;entryX=0;entryY=0.75;entryDx=0;entryDy=0;" parent="1" source="XFZ_bY-56fwhlHVYq8WO-49" target="k6gAkaUTkc_mp0CV5XvP-26" edge="1">
          <mxGeometry width="50" height="50" relative="1" as="geometry">
            <mxPoint x="1025" y="580" as="sourcePoint" />
            <mxPoint x="1075" y="530" as="targetPoint" />
          </mxGeometry>
        </mxCell>
        <mxCell id="XFZ_bY-56fwhlHVYq8WO-53" value="" style="endArrow=none;html=1;rounded=0;entryX=1;entryY=0.25;entryDx=0;entryDy=0;exitX=0;exitY=0.5;exitDx=0;exitDy=0;" parent="1" source="XFZ_bY-56fwhlHVYq8WO-46" target="k6gAkaUTkc_mp0CV5XvP-26" edge="1">
          <mxGeometry width="50" height="50" relative="1" as="geometry">
            <mxPoint x="1025" y="580" as="sourcePoint" />
            <mxPoint x="1075" y="530" as="targetPoint" />
          </mxGeometry>
        </mxCell>
        <mxCell id="XFZ_bY-56fwhlHVYq8WO-54" value="" style="endArrow=none;html=1;rounded=0;entryX=1;entryY=0.75;entryDx=0;entryDy=0;exitX=0;exitY=0.5;exitDx=0;exitDy=0;" parent="1" source="XFZ_bY-56fwhlHVYq8WO-48" target="k6gAkaUTkc_mp0CV5XvP-26" edge="1">
          <mxGeometry width="50" height="50" relative="1" as="geometry">
            <mxPoint x="1025" y="580" as="sourcePoint" />
            <mxPoint x="1075" y="530" as="targetPoint" />
          </mxGeometry>
        </mxCell>
        <mxCell id="XFZ_bY-56fwhlHVYq8WO-55" value="Número" style="ellipse;whiteSpace=wrap;html=1;align=center;fontStyle=4;fillColor=#f8cecc;strokeColor=#b85450;" parent="1" vertex="1">
          <mxGeometry x="795" y="455" width="80" height="30" as="geometry" />
        </mxCell>
        <mxCell id="XFZ_bY-56fwhlHVYq8WO-57" value="Fecha" style="ellipse;whiteSpace=wrap;html=1;align=center;fillColor=#f8cecc;strokeColor=#b85450;" parent="1" vertex="1">
          <mxGeometry x="815" y="495" width="80" height="30" as="geometry" />
        </mxCell>
        <mxCell id="XFZ_bY-56fwhlHVYq8WO-58" value="RFC cliente" style="ellipse;whiteSpace=wrap;html=1;align=center;fillColor=#f8cecc;strokeColor=#b85450;" parent="1" vertex="1">
          <mxGeometry x="805" y="535" width="80" height="30" as="geometry" />
        </mxCell>
        <mxCell id="XFZ_bY-56fwhlHVYq8WO-59" value="" style="endArrow=none;html=1;rounded=0;exitX=1;exitY=0.107;exitDx=0;exitDy=0;entryX=0;entryY=1;entryDx=0;entryDy=0;exitPerimeter=0;" parent="1" source="k6gAkaUTkc_mp0CV5XvP-37" target="XFZ_bY-56fwhlHVYq8WO-55" edge="1">
          <mxGeometry width="50" height="50" relative="1" as="geometry">
            <mxPoint x="825" y="510" as="sourcePoint" />
            <mxPoint x="875" y="460" as="targetPoint" />
          </mxGeometry>
        </mxCell>
        <mxCell id="XFZ_bY-56fwhlHVYq8WO-60" value="" style="endArrow=none;html=1;rounded=0;exitX=1;exitY=0.75;exitDx=0;exitDy=0;entryX=0;entryY=0;entryDx=0;entryDy=0;" parent="1" source="k6gAkaUTkc_mp0CV5XvP-37" target="XFZ_bY-56fwhlHVYq8WO-58" edge="1">
          <mxGeometry width="50" height="50" relative="1" as="geometry">
            <mxPoint x="785" y="570" as="sourcePoint" />
            <mxPoint x="835" y="520" as="targetPoint" />
          </mxGeometry>
        </mxCell>
        <mxCell id="XFZ_bY-56fwhlHVYq8WO-61" value="" style="endArrow=none;html=1;rounded=0;entryX=0;entryY=0.5;entryDx=0;entryDy=0;exitX=1;exitY=0.5;exitDx=0;exitDy=0;" parent="1" source="k6gAkaUTkc_mp0CV5XvP-37" target="XFZ_bY-56fwhlHVYq8WO-57" edge="1">
          <mxGeometry width="50" height="50" relative="1" as="geometry">
            <mxPoint x="765" y="530" as="sourcePoint" />
            <mxPoint x="815" y="480" as="targetPoint" />
          </mxGeometry>
        </mxCell>
        <mxCell id="XFZ_bY-56fwhlHVYq8WO-62" value="Tamaño de carga" style="ellipse;whiteSpace=wrap;html=1;align=center;fillColor=#f8cecc;strokeColor=#b85450;" parent="1" vertex="1">
          <mxGeometry x="605" y="640" width="80" height="40" as="geometry" />
        </mxCell>
        <mxCell id="XFZ_bY-56fwhlHVYq8WO-63" value="Fecha de partida" style="ellipse;whiteSpace=wrap;html=1;align=center;fillColor=#f8cecc;strokeColor=#b85450;" parent="1" vertex="1">
          <mxGeometry x="575" y="690" width="80" height="40" as="geometry" />
        </mxCell>
        <mxCell id="XFZ_bY-56fwhlHVYq8WO-65" value="Fecha de destino" style="ellipse;whiteSpace=wrap;html=1;align=center;fillColor=#f8cecc;strokeColor=#b85450;" parent="1" vertex="1">
          <mxGeometry x="600" y="740" width="80" height="40" as="geometry" />
        </mxCell>
        <mxCell id="XFZ_bY-56fwhlHVYq8WO-66" value="" style="endArrow=none;html=1;rounded=0;entryX=1;entryY=1;entryDx=0;entryDy=0;exitX=0;exitY=0.25;exitDx=0;exitDy=0;" parent="1" source="k6gAkaUTkc_mp0CV5XvP-48" target="XFZ_bY-56fwhlHVYq8WO-62" edge="1">
          <mxGeometry width="50" height="50" relative="1" as="geometry">
            <mxPoint x="785" y="690" as="sourcePoint" />
            <mxPoint x="835" y="640" as="targetPoint" />
          </mxGeometry>
        </mxCell>
        <mxCell id="XFZ_bY-56fwhlHVYq8WO-67" value="" style="endArrow=none;html=1;rounded=0;entryX=1;entryY=0.5;entryDx=0;entryDy=0;exitX=0;exitY=0.5;exitDx=0;exitDy=0;" parent="1" source="k6gAkaUTkc_mp0CV5XvP-48" target="XFZ_bY-56fwhlHVYq8WO-63" edge="1">
          <mxGeometry width="50" height="50" relative="1" as="geometry">
            <mxPoint x="785" y="690" as="sourcePoint" />
            <mxPoint x="835" y="640" as="targetPoint" />
          </mxGeometry>
        </mxCell>
        <mxCell id="XFZ_bY-56fwhlHVYq8WO-68" value="" style="endArrow=none;html=1;rounded=0;exitX=1;exitY=0;exitDx=0;exitDy=0;entryX=0;entryY=0.75;entryDx=0;entryDy=0;" parent="1" source="XFZ_bY-56fwhlHVYq8WO-65" target="k6gAkaUTkc_mp0CV5XvP-48" edge="1">
          <mxGeometry width="50" height="50" relative="1" as="geometry">
            <mxPoint x="785" y="690" as="sourcePoint" />
            <mxPoint x="835" y="640" as="targetPoint" />
          </mxGeometry>
        </mxCell>
        <mxCell id="XFZ_bY-56fwhlHVYq8WO-71" value="Fecha" style="ellipse;whiteSpace=wrap;html=1;align=center;fillColor=#f8cecc;strokeColor=#b85450;" parent="1" vertex="1">
          <mxGeometry x="35" y="351.5" width="80" height="30" as="geometry" />
        </mxCell>
        <mxCell id="XFZ_bY-56fwhlHVYq8WO-72" value="Importe" style="ellipse;whiteSpace=wrap;html=1;align=center;fillColor=#f8cecc;strokeColor=#b85450;" parent="1" vertex="1">
          <mxGeometry x="35" y="394" width="80" height="30" as="geometry" />
        </mxCell>
        <mxCell id="XFZ_bY-56fwhlHVYq8WO-74" value="Identificador" style="ellipse;whiteSpace=wrap;html=1;align=center;fontStyle=4;fillColor=#f8cecc;strokeColor=#b85450;" parent="1" vertex="1">
          <mxGeometry x="85" y="315" width="80" height="30" as="geometry" />
        </mxCell>
        <mxCell id="XFZ_bY-56fwhlHVYq8WO-75" value="Razón" style="ellipse;whiteSpace=wrap;html=1;align=center;fillColor=#f8cecc;strokeColor=#b85450;" parent="1" vertex="1">
          <mxGeometry x="85" y="430" width="80" height="30" as="geometry" />
        </mxCell>
        <mxCell id="XFZ_bY-56fwhlHVYq8WO-76" value="" style="endArrow=none;html=1;rounded=0;exitX=0.036;exitY=0.003;exitDx=0;exitDy=0;exitPerimeter=0;entryX=0.5;entryY=1;entryDx=0;entryDy=0;" parent="1" source="k6gAkaUTkc_mp0CV5XvP-62" target="XFZ_bY-56fwhlHVYq8WO-74" edge="1">
          <mxGeometry width="50" height="50" relative="1" as="geometry">
            <mxPoint x="205" y="380" as="sourcePoint" />
            <mxPoint x="255" y="330" as="targetPoint" />
          </mxGeometry>
        </mxCell>
        <mxCell id="XFZ_bY-56fwhlHVYq8WO-77" value="" style="endArrow=none;html=1;rounded=0;exitX=0.5;exitY=0;exitDx=0;exitDy=0;entryX=0.018;entryY=0.994;entryDx=0;entryDy=0;entryPerimeter=0;" parent="1" source="XFZ_bY-56fwhlHVYq8WO-75" target="k6gAkaUTkc_mp0CV5XvP-62" edge="1">
          <mxGeometry width="50" height="50" relative="1" as="geometry">
            <mxPoint x="95" y="410" as="sourcePoint" />
            <mxPoint x="145" y="360" as="targetPoint" />
          </mxGeometry>
        </mxCell>
        <mxCell id="XFZ_bY-56fwhlHVYq8WO-78" value="" style="endArrow=none;html=1;rounded=0;exitX=1;exitY=0.5;exitDx=0;exitDy=0;entryX=0;entryY=0.5;entryDx=0;entryDy=0;" parent="1" source="XFZ_bY-56fwhlHVYq8WO-71" target="k6gAkaUTkc_mp0CV5XvP-62" edge="1">
          <mxGeometry width="50" height="50" relative="1" as="geometry">
            <mxPoint x="95" y="410" as="sourcePoint" />
            <mxPoint x="145" y="360" as="targetPoint" />
          </mxGeometry>
        </mxCell>
        <mxCell id="XFZ_bY-56fwhlHVYq8WO-79" value="" style="endArrow=none;html=1;rounded=0;exitX=1;exitY=0.5;exitDx=0;exitDy=0;entryX=0;entryY=0.5;entryDx=0;entryDy=0;" parent="1" source="XFZ_bY-56fwhlHVYq8WO-72" target="k6gAkaUTkc_mp0CV5XvP-62" edge="1">
          <mxGeometry width="50" height="50" relative="1" as="geometry">
            <mxPoint x="95" y="410" as="sourcePoint" />
            <mxPoint x="145" y="360" as="targetPoint" />
          </mxGeometry>
        </mxCell>
        <mxCell id="k6gAkaUTkc_mp0CV5XvP-37" value="Envío" style="rounded=1;arcSize=10;whiteSpace=wrap;html=1;align=center;fillColor=#dae8fc;strokeColor=#6c8ebf;" parent="1" vertex="1">
          <mxGeometry x="685" y="490" width="100" height="40" as="geometry" />
        </mxCell>
        <mxCell id="Sdfdn7-9RXj5G68LIbd9-2" value="" style="endArrow=ERzeroToMany;html=1;rounded=0;exitX=1;exitY=0.5;exitDx=0;exitDy=0;entryX=0;entryY=0.5;entryDx=0;entryDy=0;endFill=0;" edge="1" parent="1" source="5jimEdN-B-V5lsOgfbOn-40" target="k6gAkaUTkc_mp0CV5XvP-37">
          <mxGeometry width="50" height="50" relative="1" as="geometry">
            <mxPoint x="505" y="540" as="sourcePoint" />
            <mxPoint x="545" y="540" as="targetPoint" />
            <Array as="points">
              <mxPoint x="615" y="605" />
              <mxPoint x="615" y="510" />
            </Array>
          </mxGeometry>
        </mxCell>
        <mxCell id="Sdfdn7-9RXj5G68LIbd9-3" value="" style="endArrow=ERzeroToMany;html=1;rounded=0;exitX=0.5;exitY=1;exitDx=0;exitDy=0;endFill=0;entryX=1;entryY=0.25;entryDx=0;entryDy=0;" edge="1" parent="1" source="5jimEdN-B-V5lsOgfbOn-34" target="k6gAkaUTkc_mp0CV5XvP-48">
          <mxGeometry width="50" height="50" relative="1" as="geometry">
            <mxPoint x="935" y="620" as="sourcePoint" />
            <mxPoint x="875" y="690" as="targetPoint" />
            <Array as="points">
              <mxPoint x="1285" y="700" />
            </Array>
          </mxGeometry>
        </mxCell>
        <mxCell id="Sdfdn7-9RXj5G68LIbd9-4" value="" style="endArrow=ERzeroToMany;html=1;rounded=0;exitX=0.5;exitY=1;exitDx=0;exitDy=0;endFill=0;entryX=1;entryY=0.75;entryDx=0;entryDy=0;" edge="1" parent="1" source="5jimEdN-B-V5lsOgfbOn-35" target="k6gAkaUTkc_mp0CV5XvP-48">
          <mxGeometry width="50" height="50" relative="1" as="geometry">
            <mxPoint x="985" y="690" as="sourcePoint" />
            <mxPoint x="885" y="710" as="targetPoint" />
            <Array as="points">
              <mxPoint x="1435" y="720" />
            </Array>
          </mxGeometry>
        </mxCell>
        <mxCell id="Sdfdn7-9RXj5G68LIbd9-5" value="RFC" style="ellipse;whiteSpace=wrap;html=1;align=center;fillColor=#f8cecc;strokeColor=#b85450;" vertex="1" parent="1">
          <mxGeometry x="435" y="102.5" width="50" height="25" as="geometry" />
        </mxCell>
        <mxCell id="Sdfdn7-9RXj5G68LIbd9-6" value="Tarifa de costo" style="ellipse;whiteSpace=wrap;html=1;align=center;fillColor=#f8cecc;strokeColor=#b85450;" vertex="1" parent="1">
          <mxGeometry x="600" y="95" width="80" height="40" as="geometry" />
        </mxCell>
      </root>
    </mxGraphModel>
  </diagram>
</mxfile>
